<?xml version="1.0" standalone="no"?>
<!DOCTYPE svg PUBLIC "-//W3C//DTD SVG 20010904//EN"
 "http://www.w3.org/TR/2001/REC-SVG-20010904/DTD/svg10.dtd">
<svg version="1.0" xmlns="http://www.w3.org/2000/svg"
 width="18.000000pt" height="18.000000pt" viewBox="0 0 18.000000 18.000000"
 preserveAspectRatio="xMidYMid meet">

<g transform="translate(0.000000,18.000000) scale(0.100000,-0.100000)"
fill="#000000" stroke="none">
<path d="M54 170 c-30 -12 -54 -49 -54 -82 0 -29 53 -98 66 -86 4 4 -4 16 -17
27 l-24 20 25 -6 25 -6 -24 20 c-19 15 -22 25 -17 49 6 27 9 29 56 29 47 0 50
-2 56 -29 5 -23 2 -34 -15 -47 -21 -17 -29 -59 -12 -59 19 0 61 62 61 90 0 58
-72 103 -126 80z"/>
</g>
</svg>
